<svg aria-hidden="true" style="position: absolute; width: 0; height: 0; overflow: hidden;" version="1.1" xmlns="http://www.w3.org/2000/svg" xmlns:xlink="http://www.w3.org/1999/xlink">
<defs>
<symbol id="icon-arrow" viewBox="0 0 32 32">
<path d="M5.037 15.36c0-0.353 0.287-0.64 0.64-0.64v0h20.48c0.353 0 0.64 0.287 0.64 0.64s-0.287 0.64-0.64 0.64v0h-20.48c-0.353 0-0.64-0.287-0.64-0.64v0z"></path>
<path d="M21.225 10.427c0.116-0.116 0.276-0.187 0.452-0.187s0.337 0.072 0.452 0.187l4.932 4.933-4.932 4.933c-0.116 0.116-0.276 0.187-0.452 0.187-0.354 0-0.64-0.287-0.64-0.64 0-0.177 0.072-0.337 0.188-0.453v0l4.027-4.027-4.027-4.027c-0.116-0.116-0.188-0.276-0.188-0.453s0.072-0.337 0.188-0.453v0z"></path>
</symbol>
<symbol id="icon-menu" viewBox="0 0 33 32">
<path stroke-linejoin="round" stroke-linecap="round" stroke-miterlimit="4" stroke-width="2.2857" d="M4.5 11.334h24M4.5 20.666h24"></path>
</symbol>
<symbol id="icon-favicon-light" viewBox="0 0 32 32">
<path fill="#e3e3e3" style="fill: var(--color1, #e3e3e3)" d="M21.469 27.034l1.667 3.849c0.309 0.71 1.158 1.045 1.898 0.75 0.742-0.291 1.092-1.103 0.786-1.814l-1.667-3.848-2.684 1.063z"></path>
<path fill="#000" style="fill: var(--color2, #000)" opacity="0.2" d="M21.469 27.034l1.667 3.849c0.309 0.71 1.158 1.045 1.898 0.75 0.742-0.291 1.092-1.103 0.786-1.814l-1.667-3.848-2.684 1.063z"></path>
<path fill="#e3e3e3" style="fill: var(--color1, #e3e3e3)" d="M22.581 29.6v0z"></path>
<path fill="#000" style="fill: var(--color2, #000)" opacity="0.2" d="M22.581 29.6v0z"></path>
<path fill="#e3e3e3" style="fill: var(--color1, #e3e3e3)" d="M20.014 11.108c0 2.046-1.734 3.703-3.871 3.703-2.141 0-3.873-1.657-3.873-3.703 0-2.045 1.732-3.702 3.873-3.702 2.136 0 3.871 1.657 3.871 3.702z"></path>
<path fill="#000" style="fill: var(--color2, #000)" opacity="0.2" d="M20.014 11.108c0 2.046-1.734 3.703-3.871 3.703-2.141 0-3.873-1.657-3.873-3.703 0-2.045 1.732-3.702 3.873-3.702 2.136 0 3.871 1.657 3.871 3.702z"></path>
<path fill="#e3e3e3" style="fill: var(--color1, #e3e3e3)" d="M18.078 11.108c0 1.023-0.866 1.853-1.935 1.853-1.070 0-1.938-0.83-1.938-1.853s0.867-1.85 1.938-1.85c1.069 0 1.935 0.829 1.935 1.852z"></path>
<path fill="#000" style="fill: var(--color2, #000)" opacity="0.2" d="M18.078 11.108c0 1.023-0.866 1.853-1.935 1.853-1.070 0-1.938-0.83-1.938-1.853s0.867-1.85 1.938-1.85c1.069 0 1.935 0.829 1.935 1.852z"></path>
<path fill="#e3e3e3" style="fill: var(--color1, #e3e3e3)" d="M13.427 13.749l-5.298 12.223-1.329 5.486 0.894 0.354 3.119-4.778 0.742-1.709c-0.579-1.336 0.084-2.869 1.482-3.422l3.073-7.093c-1.038-0.004-1.982-0.407-2.685-1.065l0.002 0.002z"></path>
<path fill="#000" style="fill: var(--color2, #000)" opacity="0.2" d="M13.427 13.749l-5.298 12.223-1.329 5.486 0.894 0.354 3.119-4.778 0.742-1.709c-0.579-1.336 0.084-2.869 1.482-3.422l3.073-7.093c-1.038-0.004-1.982-0.407-2.685-1.065l0.002 0.002z"></path>
<path fill="#e3e3e3" style="fill: var(--color1, #e3e3e3)" d="M18.857 13.747c-0.701 0.656-1.646 1.060-2.684 1.063h-0.001l4.557 10.514 2.682-1.062-4.555-10.515z"></path>
<path fill="#000" style="fill: var(--color2, #000)" opacity="0.2" d="M18.857 13.747c-0.701 0.656-1.646 1.060-2.684 1.063h-0.001l4.557 10.514 2.682-1.062-4.555-10.515z"></path>
<path fill="#e3e3e3" style="fill: var(--color1, #e3e3e3)" d="M17.594 5.555v-4.164c0-0.769-0.653-1.39-1.452-1.39-0.802 0-1.453 0.62-1.453 1.389v4.166h2.905z"></path>
<path fill="#000" style="fill: var(--color2, #000)" opacity="0.2" d="M17.594 5.555v-4.164c0-0.769-0.653-1.39-1.452-1.39-0.802 0-1.453 0.62-1.453 1.389v4.166h2.905z"></path>
<path fill="#e3e3e3" style="fill: var(--color1, #e3e3e3)" d="M16.143 7.406c0.247 0 0.49 0.024 0.724 0.066v-1.918h-1.451v1.918c0.219-0.042 0.47-0.066 0.727-0.066h0z"></path>
<path fill="#000" style="fill: var(--color2, #000)" opacity="0.2" d="M16.143 7.406c0.247 0 0.49 0.024 0.724 0.066v-1.918h-1.451v1.918c0.219-0.042 0.47-0.066 0.727-0.066h0z"></path>
</symbol>
<symbol id="icon-cross" viewBox="0 0 32 32">
<path stroke-linejoin="miter" stroke-linecap="butt" stroke-miterlimit="4" stroke-width="4.2667" d="M2.133 2.135l27.733 27.733M2.133 29.867l27.733-27.733"></path>
</symbol>
<symbol id="icon-phone" viewBox="0 0 32 32">
<path stroke-linejoin="miter" stroke-linecap="butt" stroke-miterlimit="4" stroke-width="1.8824" d="M6.131 1.882c0.003-0 0.005-0 0.008-0 0.033 0 0.064 0.005 0.094 0.014l-0.002-0.001 0.070 0.038c0.113 0.085 0.213 0.192 0.301 0.326l3.398 6.451c0.050 0.084 0.080 0.184 0.080 0.292 0 0.011-0 0.022-0.001 0.033l0-0.002-0.019 0.136c-0.032 0.167-0.098 0.315-0.19 0.442l0.002-0.003-0.1 0.113-1.562 1.562c-0.087 0.087-0.161 0.187-0.221 0.296l-0.003 0.007-0.115 0.273c-0.058 0.159-0.093 0.343-0.096 0.535l-0 0.002v0.088l0.017 0.088c0.107 0.565 0.339 1.165 0.663 1.788v-0.002c0.288 0.572 0.712 1.239 1.254 1.988 0.572 0.787 1.363 1.668 2.355 2.639 0.734 0.753 1.419 1.389 2.054 1.909l0.617 0.478c0.572 0.414 1.092 0.762 1.551 1.030l0.442 0.245c0.384 0.194 0.749 0.36 1.077 0.463l0.314 0.081 0.491 0.1h0.092c0.104 0 0.207-0.017 0.296-0.038l0.209-0.060c0.162-0.053 0.303-0.124 0.43-0.214l-0.005 0.003 0.151-0.126 0.006-0.006 1.788-1.82c0.178-0.161 0.416-0.26 0.677-0.26 0.008 0 0.015 0 0.023 0l-0.001-0c0.264 0 0.361 0.049 0.376 0.056l0.226 0.136h0.034l5.918 3.496c0.252 0.156 0.331 0.294 0.361 0.407 0.015 0.169-0.024 0.301-0.177 0.454l-4.28 4.25c-0.055 0.060-0.114 0.113-0.179 0.16l-0.003 0.002-0.275 0.162c-0.117 0.056-0.228 0.1-0.333 0.134l-0.301 0.070-0.151 0.011c-0.085 0.007-0.183 0.012-0.282 0.012-0.014 0-0.028-0-0.042-0l0.002 0c-0.164 0-0.395-0.015-0.696-0.045l-1.124-0.151c-0.832-0.147-1.568-0.358-2.271-0.634l0.080 0.028-0.909-0.354c-1.215-0.523-2.236-1.064-3.211-1.673l0.099 0.058-1.184-0.745c-1.389-0.909-2.876-2.127-4.457-3.661l-0.693-0.687-1.047-1.067c-0.832-0.877-1.56-1.724-2.189-2.541l-0.365-0.489c-0.585-0.782-1.188-1.682-1.745-2.613l-0.081-0.146-0.461-0.838c-0.433-0.828-0.781-1.587-1.045-2.278l-0.235-0.668c-0.216-0.672-0.375-1.261-0.482-1.769l-0.090-0.482c-0.059-0.33-0.102-0.721-0.118-1.119l-0.001-0.018 0.002-0.245c0.013-0.25 0.019-0.45 0.026-0.572 0.018-0.109 0.041-0.204 0.072-0.296l-0.004 0.013 0.134-0.335c0.081-0.179 0.19-0.331 0.323-0.459l0.001-0 0.019-0.017 4.26-4.26c0.141-0.141 0.248-0.171 0.356-0.171z"></path>
</symbol>
<symbol id="icon-success" viewBox="0 0 32 32">
<path d="M4.965 15.195c-0.407-0.371-0.951-0.598-1.547-0.598s-1.14 0.227-1.549 0.599l0.002-0.002c-0.394 0.357-0.641 0.871-0.641 1.442s0.247 1.085 0.639 1.441l0.002 0.001 7.737 7.214c0.857 0.8 2.247 0.795 3.102-0.007l17.426-16.393c0.391-0.357 0.636-0.868 0.636-1.437 0-0.575-0.25-1.092-0.647-1.448l-0.002-0.002c-0.406-0.367-0.947-0.591-1.54-0.591-0.6 0-1.147 0.23-1.557 0.606l0.002-0.002-15.879 14.939-6.183-5.765z"></path>
</symbol>
<symbol id="icon-mail" viewBox="0 0 32 32">
<path stroke-linejoin="miter" stroke-linecap="butt" stroke-miterlimit="4" stroke-width="1.6" d="M13.928 19.6v0.004c0.588 0.492 1.34 0.752 2.116 0.752 0.68 0 1.34-0.2 1.888-0.582l0.228-0.174v-0.002l1.908-1.62 9.954 8.22h-28.052l9.972-8.28 1.986 1.684zM31.2 23.352l-8.846-7.312 8.846-7.502v14.812zM9.66 15.98l-8.86 7.36v-14.866l8.86 7.508zM29.868 5.802l-13.596 11.526c-0.062 0.040-0.138 0.064-0.22 0.064-0.001 0-0.003 0-0.004-0h-0.004c-0.002 0-0.005 0-0.008 0-0.054 0-0.105-0.009-0.153-0.025l0.003 0.001-0.080-0.040-13.606-11.528h27.67z"></path>
</symbol>
<symbol id="icon-location" viewBox="0 0 32 32">
<path stroke-linejoin="miter" stroke-linecap="butt" stroke-miterlimit="4" stroke-width="2" d="M8.936 3.976c1.794-1.837 4.295-2.977 7.063-2.977 2.586 0 4.94 0.995 6.699 2.623l-0.007-0.006 0.372 0.36c1.734 1.764 2.74 4.356 2.91 7.068 0.17 2.714-0.502 5.436-1.98 7.44l-0.010 0.014-0.012 0.016-7.972 11.706-7.994-11.738-0.268-0.382c-1.29-1.96-1.872-4.512-1.712-7.056s1.054-4.98 2.594-6.728l0.316-0.34zM16.108 6.384c-2.574 0-4.632 2.116-4.632 4.692s2.058 4.694 4.632 4.694c2.572 0 4.63-2.118 4.63-4.694s-2.058-4.692-4.63-4.692z"></path>
</symbol>
<symbol id="icon-facebook" viewBox="0 0 32 32">
<path d="M19 6h5v-6h-5c-3.86 0-7 3.14-7 7v3h-4v6h4v16h6v-16h5l1-6h-6v-3c0-0.542 0.458-1 1-1z"></path>
</symbol>
<symbol id="icon-instagram" viewBox="0 0 32 32">
<path d="M16 2.881c4.275 0 4.781 0.019 6.462 0.094 1.563 0.069 2.406 0.331 2.969 0.55 0.744 0.288 1.281 0.638 1.837 1.194 0.563 0.563 0.906 1.094 1.2 1.838 0.219 0.563 0.481 1.412 0.55 2.969 0.075 1.688 0.094 2.194 0.094 6.463s-0.019 4.781-0.094 6.463c-0.069 1.563-0.331 2.406-0.55 2.969-0.288 0.744-0.637 1.281-1.194 1.837-0.563 0.563-1.094 0.906-1.837 1.2-0.563 0.219-1.413 0.481-2.969 0.55-1.688 0.075-2.194 0.094-6.463 0.094s-4.781-0.019-6.463-0.094c-1.563-0.069-2.406-0.331-2.969-0.55-0.744-0.288-1.281-0.637-1.838-1.194-0.563-0.563-0.906-1.094-1.2-1.837-0.219-0.563-0.481-1.413-0.55-2.969-0.075-1.688-0.094-2.194-0.094-6.463s0.019-4.781 0.094-6.463c0.069-1.563 0.331-2.406 0.55-2.969 0.288-0.744 0.638-1.281 1.194-1.838 0.563-0.563 1.094-0.906 1.838-1.2 0.563-0.219 1.412-0.481 2.969-0.55 1.681-0.075 2.188-0.094 6.463-0.094zM16 0c-4.344 0-4.887 0.019-6.594 0.094-1.7 0.075-2.869 0.35-3.881 0.744-1.056 0.412-1.95 0.956-2.837 1.85-0.894 0.888-1.438 1.781-1.85 2.831-0.394 1.019-0.669 2.181-0.744 3.881-0.075 1.713-0.094 2.256-0.094 6.6s0.019 4.887 0.094 6.594c0.075 1.7 0.35 2.869 0.744 3.881 0.413 1.056 0.956 1.95 1.85 2.837 0.887 0.887 1.781 1.438 2.831 1.844 1.019 0.394 2.181 0.669 3.881 0.744 1.706 0.075 2.25 0.094 6.594 0.094s4.888-0.019 6.594-0.094c1.7-0.075 2.869-0.35 3.881-0.744 1.050-0.406 1.944-0.956 2.831-1.844s1.438-1.781 1.844-2.831c0.394-1.019 0.669-2.181 0.744-3.881 0.075-1.706 0.094-2.25 0.094-6.594s-0.019-4.887-0.094-6.594c-0.075-1.7-0.35-2.869-0.744-3.881-0.394-1.063-0.938-1.956-1.831-2.844-0.887-0.887-1.781-1.438-2.831-1.844-1.019-0.394-2.181-0.669-3.881-0.744-1.712-0.081-2.256-0.1-6.6-0.1v0z"></path>
<path d="M16 7.781c-4.537 0-8.219 3.681-8.219 8.219s3.681 8.219 8.219 8.219 8.219-3.681 8.219-8.219c0-4.537-3.681-8.219-8.219-8.219zM16 21.331c-2.944 0-5.331-2.387-5.331-5.331s2.387-5.331 5.331-5.331c2.944 0 5.331 2.387 5.331 5.331s-2.387 5.331-5.331 5.331z"></path>
<path d="M26.462 7.456c0 1.060-0.859 1.919-1.919 1.919s-1.919-0.859-1.919-1.919c0-1.060 0.859-1.919 1.919-1.919s1.919 0.859 1.919 1.919z"></path>
</symbol>
<symbol id="icon-whatsapp" viewBox="0 0 32 32">
<path d="M27.281 4.65c-2.994-3-6.975-4.65-11.219-4.65-8.738 0-15.85 7.112-15.85 15.856 0 2.794 0.731 5.525 2.119 7.925l-2.25 8.219 8.406-2.206c2.319 1.262 4.925 1.931 7.575 1.931h0.006c0 0 0 0 0 0 8.738 0 15.856-7.113 15.856-15.856 0-4.238-1.65-8.219-4.644-11.219zM16.069 29.050v0c-2.369 0-4.688-0.637-6.713-1.837l-0.481-0.288-4.987 1.306 1.331-4.863-0.313-0.5c-1.325-2.094-2.019-4.519-2.019-7.012 0-7.269 5.912-13.181 13.188-13.181 3.519 0 6.831 1.375 9.319 3.862 2.488 2.494 3.856 5.8 3.856 9.325-0.006 7.275-5.919 13.188-13.181 13.188zM23.294 19.175c-0.394-0.2-2.344-1.156-2.706-1.288s-0.625-0.2-0.894 0.2c-0.262 0.394-1.025 1.288-1.256 1.556-0.231 0.262-0.462 0.3-0.856 0.1s-1.675-0.619-3.188-1.969c-1.175-1.050-1.975-2.35-2.206-2.744s-0.025-0.613 0.175-0.806c0.181-0.175 0.394-0.463 0.594-0.694s0.262-0.394 0.394-0.662c0.131-0.262 0.069-0.494-0.031-0.694s-0.894-2.15-1.219-2.944c-0.319-0.775-0.65-0.669-0.894-0.681-0.231-0.012-0.494-0.012-0.756-0.012s-0.694 0.1-1.056 0.494c-0.363 0.394-1.387 1.356-1.387 3.306s1.419 3.831 1.619 4.1c0.2 0.262 2.794 4.269 6.769 5.981 0.944 0.406 1.681 0.65 2.256 0.837 0.95 0.3 1.813 0.256 2.494 0.156 0.762-0.113 2.344-0.956 2.675-1.881s0.331-1.719 0.231-1.881c-0.094-0.175-0.356-0.275-0.756-0.475z"></path>
</symbol>
<symbol id="icon-telegram" viewBox="0 0 32 32">
<path d="M16 0c-8.838 0-16 7.162-16 16s7.162 16 16 16 16-7.163 16-16-7.163-16-16-16zM23.863 10.969l-2.625 12.369c-0.181 0.881-0.712 1.087-1.45 0.681l-4-2.956-1.919 1.869c-0.225 0.219-0.4 0.4-0.8 0.4-0.519 0-0.431-0.194-0.606-0.688l-1.363-4.475-3.956-1.231c-0.856-0.262-0.862-0.85 0.194-1.269l15.412-5.95c0.7-0.319 1.381 0.169 1.113 1.25z"></path>
</symbol>
<symbol id="icon-linkedin" viewBox="0 0 32 32">
<path d="M29 0h-26c-1.65 0-3 1.35-3 3v26c0 1.65 1.35 3 3 3h26c1.65 0 3-1.35 3-3v-26c0-1.65-1.35-3-3-3zM12 26h-4v-14h4v14zM10 10c-1.106 0-2-0.894-2-2s0.894-2 2-2c1.106 0 2 0.894 2 2s-0.894 2-2 2zM26 26h-4v-8c0-1.106-0.894-2-2-2s-2 0.894-2 2v8h-4v-14h4v2.481c0.825-1.131 2.087-2.481 3.5-2.481 2.488 0 4.5 2.238 4.5 5v9z"></path>
</symbol>
</defs>
</svg>
