<!-- Generated by IcoMoon.io -->
<svg version="1.1" xmlns="http://www.w3.org/2000/svg" width="1024" height="1024" viewBox="0 0 1024 1024">
<g id="icomoon-ignore">
</g>
<path fill="#000" d="M668.791 865.103l53.354 123.162c9.887 22.705 37.041 33.439 60.734 24.011 23.729-9.322 34.957-35.31 25.141-58.050l-53.354-123.127-85.875 34.004zM704.384 947.2v0zM622.252 355.469c0 65.465-55.473 118.502-123.869 118.502-68.502 0-123.939-53.036-123.939-118.502 0-65.43 55.437-118.466 123.939-118.466 68.361 0 123.869 53.036 123.869 118.466z"></path>
<path fill="#000" d="M560.282 355.469c0 32.733-27.719 59.286-61.934 59.286-34.251 0-62.005-26.553-62.005-59.286s27.754-59.215 62.005-59.215c34.216 0 61.934 26.518 61.934 59.251zM411.449 439.967l-169.525 391.133-42.514 175.563 28.601 11.335 99.822-152.894 23.729-54.696c-18.538-42.761 2.684-91.807 47.422-109.497l98.339-226.975c-33.226-0.122-63.413-13.036-85.912-34.071l0.072 0.067zM585.212 439.896c-22.44 20.989-52.657 33.909-85.891 34.004h-0.019l145.832 336.437 85.839-33.969-145.761-336.472zM544.817 177.752v-133.261c0-24.611-20.904-44.491-46.468-44.491-25.671 0-46.504 19.844-46.504 44.456v133.297h92.972zM498.383 237.003c7.91 0 15.678 0.777 23.164 2.119v-61.369h-46.433v61.369c6.995-1.345 15.042-2.116 23.268-2.119h0.002z"></path>
</svg>
